<svg xmlns="http://www.w3.org/2000/svg" width="24" height="24" viewBox="0 0 24 24"><defs><style>.a,.b{fill:none;}.a{stroke:#929292;stroke-miterlimit:10;stroke-width:2px;}.c{fill:#929292;}</style></defs><rect class="a" width="20" height="20" transform="translate(2 2)"/><path class="b" d="M0,0H24V24H0Z"/><g transform="translate(0 -0.455)"><g transform="translate(0 -4)"><path class="c" d="M7.8,16.4a3.987,3.987,0,0,1-.49,2.215,1.7,1.7,0,0,1-1.51.719,1.682,1.682,0,0,1-1.49-.742,3.922,3.922,0,0,1-.5-2.192,4.015,4.015,0,0,1,.488-2.228,1.694,1.694,0,0,1,1.5-.717,1.685,1.685,0,0,1,1.494.75A3.934,3.934,0,0,1,7.8,16.4ZM5,16.4a4.416,4.416,0,0,0,.182,1.506.635.635,0,0,0,1.22-.006,4.315,4.315,0,0,0,.188-1.5,4.285,4.285,0,0,0-.19-1.509.632.632,0,0,0-1.216,0A4.415,4.415,0,0,0,5,16.4Z"/><path class="c" d="M9.619,18.416a12.139,12.139,0,0,1-.687,1.871h-.86q.255-1.04.4-1.961H9.561Z"/><path class="c" d="M12.6,19.256l2.145-4.688H11.927V13.553h4.1v.758l-2.16,4.945Z"/><path class="c" d="M20.464,18.072h-.687v1.184H18.6V18.072H16.16v-.84l2.5-3.687h1.113v3.59h.687ZM18.6,17.135v-.969q0-.243.02-.7c.013-.307.023-.486.031-.535h-.031a4.388,4.388,0,0,1-.348.625l-1.047,1.582Z"/><path class="c" d="M7.8,16.4a3.987,3.987,0,0,1-.49,2.215,1.7,1.7,0,0,1-1.51.719,1.682,1.682,0,0,1-1.49-.742,3.922,3.922,0,0,1-.5-2.192,4.015,4.015,0,0,1,.488-2.228,1.694,1.694,0,0,1,1.5-.717,1.685,1.685,0,0,1,1.494.75A3.934,3.934,0,0,1,7.8,16.4ZM5,16.4a4.416,4.416,0,0,0,.182,1.506.635.635,0,0,0,1.22-.006,4.315,4.315,0,0,0,.188-1.5,4.285,4.285,0,0,0-.19-1.509.632.632,0,0,0-1.216,0A4.415,4.415,0,0,0,5,16.4Z"/><path class="c" d="M9.619,18.416a12.139,12.139,0,0,1-.687,1.871h-.86q.255-1.04.4-1.961H9.561Z"/><path class="c" d="M12.6,19.256l2.145-4.688H11.927V13.553h4.1v.758l-2.16,4.945Z"/><path class="c" d="M20.464,18.072h-.687v1.184H18.6V18.072H16.16v-.84l2.5-3.687h1.113v3.59h.687ZM18.6,17.135v-.969q0-.243.02-.7c.013-.307.023-.486.031-.535h-.031a4.388,4.388,0,0,1-.348.625l-1.047,1.582Z"/></g></g></svg>