<svg xmlns="http://www.w3.org/2000/svg" width="24" height="24" viewBox="0 0 24 24"><defs><style>.a,.b{fill:none;}.a{stroke:#929292;stroke-miterlimit:10;stroke-width:2px;}.c{fill:#929292;}</style></defs><rect class="a" width="20" height="20" transform="translate(2 2)"/><path class="b" d="M0,0H24V24H0Z"/><g transform="translate(0 -4.463)"><path class="c" d="M6.82,19.256H5.613V15.951l.012-.543.02-.594c-.2.2-.34.332-.418.395l-.657.527-.582-.726,1.84-1.465H6.82Z"/><path class="c" d="M13.96,19.256H9.968v-.84L11.4,16.967q.636-.652.832-.9a1.99,1.99,0,0,0,.281-.467,1.2,1.2,0,0,0,.086-.446.647.647,0,0,0-.189-.511.736.736,0,0,0-.506-.168,1.453,1.453,0,0,0-.645.152,3.318,3.318,0,0,0-.652.434l-.656-.778a4.37,4.37,0,0,1,.7-.508,2.558,2.558,0,0,1,.6-.228,3.129,3.129,0,0,1,.735-.08,2.174,2.174,0,0,1,.945.195,1.52,1.52,0,0,1,.637.547,1.453,1.453,0,0,1,.226.805,1.975,1.975,0,0,1-.138.74,2.866,2.866,0,0,1-.43.709,10.59,10.59,0,0,1-1.025,1.035l-.735.692v.054H13.96Z"/><path class="c" d="M19.871,14.822a1.339,1.339,0,0,1-.325.91,1.68,1.68,0,0,1-.91.516v.023a1.828,1.828,0,0,1,1.047.42,1.178,1.178,0,0,1,.356.9,1.527,1.527,0,0,1-.6,1.283,2.755,2.755,0,0,1-1.707.459,4.142,4.142,0,0,1-1.649-.309V18a3.716,3.716,0,0,0,.731.273,3.049,3.049,0,0,0,.789.106,1.539,1.539,0,0,0,.883-.2.746.746,0,0,0,.285-.653.588.588,0,0,0-.328-.57,2.429,2.429,0,0,0-1.047-.168h-.434v-.926h.442a2.06,2.06,0,0,0,.97-.173.628.628,0,0,0,.307-.6q0-.648-.812-.649a1.877,1.877,0,0,0-.573.094,2.839,2.839,0,0,0-.646.324l-.559-.832a3.1,3.1,0,0,1,1.864-.562,2.408,2.408,0,0,1,1.4.359A1.154,1.154,0,0,1,19.871,14.822Z"/><path class="c" d="M6.82,19.256H5.613V15.951l.012-.543.02-.594c-.2.2-.34.332-.418.395l-.657.527-.582-.726,1.84-1.465H6.82Z"/><path class="c" d="M13.96,19.256H9.968v-.84L11.4,16.967q.636-.652.832-.9a1.99,1.99,0,0,0,.281-.467,1.2,1.2,0,0,0,.086-.446.647.647,0,0,0-.189-.511.736.736,0,0,0-.506-.168,1.453,1.453,0,0,0-.645.152,3.318,3.318,0,0,0-.652.434l-.656-.778a4.37,4.37,0,0,1,.7-.508,2.558,2.558,0,0,1,.6-.228,3.129,3.129,0,0,1,.735-.08,2.174,2.174,0,0,1,.945.195,1.52,1.52,0,0,1,.637.547,1.453,1.453,0,0,1,.226.805,1.975,1.975,0,0,1-.138.74,2.866,2.866,0,0,1-.43.709,10.59,10.59,0,0,1-1.025,1.035l-.735.692v.054H13.96Z"/><path class="c" d="M19.871,14.822a1.339,1.339,0,0,1-.325.91,1.68,1.68,0,0,1-.91.516v.023a1.828,1.828,0,0,1,1.047.42,1.178,1.178,0,0,1,.356.9,1.527,1.527,0,0,1-.6,1.283,2.755,2.755,0,0,1-1.707.459,4.142,4.142,0,0,1-1.649-.309V18a3.716,3.716,0,0,0,.731.273,3.049,3.049,0,0,0,.789.106,1.539,1.539,0,0,0,.883-.2.746.746,0,0,0,.285-.653.588.588,0,0,0-.328-.57,2.429,2.429,0,0,0-1.047-.168h-.434v-.926h.442a2.06,2.06,0,0,0,.97-.173.628.628,0,0,0,.307-.6q0-.648-.812-.649a1.877,1.877,0,0,0-.573.094,2.839,2.839,0,0,0-.646.324l-.559-.832a3.1,3.1,0,0,1,1.864-.562,2.408,2.408,0,0,1,1.4.359A1.154,1.154,0,0,1,19.871,14.822Z"/></g></svg>