<svg xmlns="http://www.w3.org/2000/svg" width="24" height="24" viewBox="0 0 24 24"><defs><style>.a,.b{fill:none;}.b{stroke:rgba(0,0,0,0);}.c{fill:#929292;}.d{fill:#fff;}</style></defs><path class="a" d="M0,0H24V24H0Z"/><path class="a" d="M0,0H24V24H0Z"/><path class="b" d="M21.042,3H2.708A1.928,1.928,0,0,0,.875,5V19a1.928,1.928,0,0,0,1.833,2H21.042a1.92,1.92,0,0,0,1.824-2l.009-14A1.928,1.928,0,0,0,21.042,3Z"/><path class="c" d="M21.292,3H2.958A1.928,1.928,0,0,0,1.125,5V19a1.928,1.928,0,0,0,1.833,2H21.292a1.92,1.92,0,0,0,1.824-2l.009-14A1.928,1.928,0,0,0,21.292,3Z"/><path class="d" d="M7.375,10.75A2.25,2.25,0,1,0,5.125,8.5,2.25,2.25,0,0,0,7.375,10.75Zm4.5,4c0-1.5-3-2.25-4.5-2.25s-4.5.75-4.5,2.25v.75h9Z"/><rect class="d" width="8" height="2" transform="translate(13.375 7)"/><rect class="d" width="7" height="1" transform="translate(13.875 7.5)"/><rect class="d" width="8" height="2" transform="translate(13.375 10.5)"/><rect class="d" width="7" height="1" transform="translate(13.875 11)"/><rect class="d" width="8" height="2" transform="translate(13.375 14)"/><rect class="d" width="7" height="1" transform="translate(13.875 14.5)"/></svg>